<?xml version="1.0" encoding="UTF-8" standalone="no"?><!DOCTYPE svg PUBLIC "-//W3C//DTD SVG 1.1//EN" "http://www.w3.org/Graphics/SVG/1.1/DTD/svg11.dtd"><svg width="100%" height="100%" viewBox="0 0 64 64" version="1.1" xmlns="http://www.w3.org/2000/svg" xmlns:xlink="http://www.w3.org/1999/xlink" xml:space="preserve" xmlns:serif="http://www.serif.com/" style="fill-rule:evenodd;clip-rule:evenodd;stroke-linejoin:round;stroke-miterlimit:2;"><rect x="11.6" y="11.525" width="40.975" height="40.975" style="fill:#fff;fill-rule:nonzero;"/><path d="M16.177,20.803l12.823,0l-0,4.415l-8.237,0l0,5.376l7.051,0l-0,4.415l-7.051,0l0,9.008l-4.586,-0l-0,-23.214Z" style="fill:#1d83d4;fill-rule:nonzero;"/><path d="M37.111,31.484l2.371,0c1.207,0 2.127,-0.29 2.761,-0.872c0.635,-0.581 0.952,-1.442 0.952,-2.581c-0,-1.139 -0.317,-1.935 -0.952,-2.386c-0.634,-0.451 -1.554,-0.676 -2.761,-0.676l-2.371,-0l0,6.515Zm6.427,12.533l-3.9,-8.367l-2.527,-0l0,8.367l-4.586,-0l-0,-23.214l7.332,0c1.081,0 2.095,0.119 3.042,0.356c0.946,0.238 1.773,0.635 2.48,1.193c0.707,0.558 1.269,1.3 1.685,2.225c0.416,0.926 0.624,2.077 0.624,3.454c-0,1.709 -0.328,3.115 -0.983,4.219c-0.655,1.104 -1.534,1.928 -2.636,2.474l4.617,9.293l-5.148,-0Z" style="fill:#1d83d4;fill-rule:nonzero;"/><path d="M5.8,58.3l0,-52.5l52.5,-0l0,52.5l-52.5,-0Zm5.8,-5.8l40.9,-0l0,-40.9l-40.9,-0l-0,40.9Z" style="fill:#666;fill-rule:nonzero;"/></svg>